<svg width="375" height="450" viewBox="0 0 375 450" fill="none" xmlns="http://www.w3.org/2000/svg">
<path fill-rule="evenodd" clip-rule="evenodd" d="M142.227 342.072C205.019 359.73 235.572 291.967 289.373 297.122C318.823 299.944 377.526 314.248 377.394 210.054C377.066 142.787 315.065 125.943 251.128 160.44C232.314 167.798 217.461 165.517 201.333 158.207C185.206 150.896 164.464 118.26 125.372 111.546C7.73179 91.3415 -92.9249 275.943 142.227 342.072Z" fill="#2BD9F5"/>
<path fill-rule="evenodd" clip-rule="evenodd" d="M291.443 172.839C292.622 172.266 294.735 173.376 293.509 175.164C290.794 179.123 301.294 187.03 297.924 180.062C297.563 179.317 295.715 174.165 298.33 176.825C300.945 179.484 304.591 191.238 302.233 195.288C300.163 198.842 294.687 200.533 287.211 200.733L286.875 200.741L286.716 200.75C282.309 200.955 278.967 198.228 276.81 192.916L276.707 192.657C274.523 187.098 275.122 182.641 278.653 179.636C278.717 179.582 278.786 179.533 278.858 179.49L278.969 179.43L291.443 172.839Z" fill="white"/>
<path fill-rule="evenodd" clip-rule="evenodd" d="M53.3659 68.7916C52.8519 68.0621 52.0189 67.6421 51.1293 67.751C50.2183 67.8615 49.4566 68.495 49.1794 69.369L49.1054 69.6027C49.0494 69.7752 48.9826 69.9728 48.9043 70.195C48.6808 70.8294 48.4098 71.5335 48.0897 72.2908C47.1796 74.4437 46.0594 76.5925 44.7223 78.5914C41.8372 82.9044 38.3611 85.9067 34.2862 87.0631C33.6493 87.2438 33.2794 87.9067 33.4602 88.5436C33.5519 88.867 39.5032 91.8412 45.5786 91.0914C51.4715 90.3641 57.4947 85.9215 57.5433 85.6191L57.6176 84.9895L57.6385 84.7786C58.0605 80.2014 57.2594 75.0309 54.1771 70.0222C53.9211 69.6061 53.6508 69.1958 53.3659 68.7916Z" fill="#E7EAEE"/>
<path fill-rule="evenodd" clip-rule="evenodd" d="M65.6293 70.1231L65.5979 70.3652C65.1711 73.464 63.9748 77.7795 61.8113 81.0346C59.1477 85.0424 55.3887 88.1073 51.6113 90.0826C46.1618 92.9318 40.2301 93.4534 34.3896 89.7519L34.132 89.586C31.0628 87.5785 28.7338 86.612 25.538 87.4096C22.3423 88.2073 20.7901 90.5348 19.4106 92.6942L19.3474 92.7856C19.1262 93.081 18.8028 93.2856 18.4382 93.3576L12.3791 94.3173L14.5856 97.0584C15.2497 97.8893 15.7218 98.4884 16.0017 98.8555L18.427 102.05C25.655 111.53 33.4336 120.582 48.6023 117.448L49.1165 117.338C53.1352 116.445 56.5046 118.844 60.7315 122.38L61.6346 123.141C62.7528 124.087 66.1332 127.067 67.5168 128.501L67.969 128.976L68.3861 129.425C68.473 129.519 68.5559 129.61 68.6344 129.698L69.0657 130.184L69.3305 129.871C72.1919 126.426 73.9839 121.18 74.9116 116.852C75.2622 115.217 75.4633 113.651 75.547 112.207L75.5573 112.018C75.5791 111.596 75.5888 111.227 75.5904 110.919V110.691L75.1582 110.818C70.1552 112.236 64.5264 112.377 59.034 111.744C57.7073 111.591 72.2618 99.8026 69.2743 84.536C68.5934 81.0566 68.1613 76.4045 66.9721 73.247C66.5971 72.2511 66.2083 71.3404 65.8231 70.526L65.6293 70.1231Z" fill="white"/>
<path fill-rule="evenodd" clip-rule="evenodd" d="M292.077 174.724L279.624 180.777C276.64 183.317 276.132 187.095 278.102 192.11C278.793 193.869 280.522 198.061 280.522 196.414C280.522 195.9 292.077 188.347 294.294 189.086C296.344 189.769 292.661 183.61 291.629 180.777L292.077 174.569L292.419 173.951" fill="#E7EAEE"/>
<path fill-rule="evenodd" clip-rule="evenodd" d="M275.463 179.267C276.291 179.267 271.601 181.473 271.843 185.54C272.084 189.608 275.263 197.104 274.49 197.4C273.717 197.695 272.251 195.51 271.956 194.736C270.118 189.926 269.769 187.964 269.835 185.158C269.921 181.485 271.852 179.267 275.463 179.267Z" fill="#E7EAEE"/>
<ellipse cx="296.331" cy="183.296" rx="3.23692" ry="7.31239" fill="#E7EAEE"/>
<path fill-rule="evenodd" clip-rule="evenodd" d="M70.2346 260.395C70.2346 247.707 71.6442 242.191 86.7822 235.266C117.808 222.726 117.808 222.242 177.246 199.262C192.965 193.216 226.104 207.699 240.514 201.63C250.121 197.583 259.105 194.578 267.042 190.565C267.811 195.584 272.779 204.082 274.529 205.543C265.235 207.493 256.244 210.509 247.557 214.592C228.778 223.416 239.906 221.011 210.161 249.062C207.641 251.439 198.377 256.859 184.983 262.505C184.983 262.505 158.01 258.882 147.191 254.382C136.182 249.803 119.499 235.266 119.499 235.266C119.499 235.266 100.042 247.96 88.8559 253.666C83.6202 256.336 70.2346 260.395 70.2346 260.395Z" fill="white"/>
<path fill-rule="evenodd" clip-rule="evenodd" d="M70.2343 253.802C70.2343 250.823 69.9197 248.745 70.2343 246.446C71.2601 238.951 75.2799 235.116 86.8647 229.817C117.891 217.276 117.808 215.649 177.246 192.668C192.965 186.623 226.103 201.106 240.514 195.036C250.121 190.989 259.105 187.985 267.042 183.972C267.064 184.116 266.238 190.974 266.238 190.974C266.238 190.974 246.644 201.321 233.683 203.515C219.912 205.846 200.997 195.036 182.11 200.353C153.347 208.449 87.0655 233.898 79.2244 240.276C73.0634 245.287 70.2343 253.802 70.2343 253.802Z" fill="#E7EAEE"/>
<path fill-rule="evenodd" clip-rule="evenodd" d="M53.3659 68.7916C52.8519 68.0621 52.0189 67.6421 51.1293 67.751C50.2183 67.8615 49.4566 68.495 49.1794 69.369L49.1054 69.6027C49.0494 69.7752 48.9826 69.9728 48.9043 70.195C48.6808 70.8294 48.4098 71.5335 48.0897 72.2908C47.1796 74.4437 46.0594 76.5925 44.7223 78.5914C41.8372 82.9044 38.3611 85.9067 34.2862 87.0631C33.6493 87.2438 33.2794 87.9067 33.4602 88.5436C33.6409 89.1806 43.5416 84.6688 46.7152 79.9245C48.1438 77.7888 49.3327 75.5083 50.2981 73.2244C50.5894 72.5353 50.8429 71.8862 51.0601 71.2872L51.1657 70.9919C51.2507 70.7506 51.3238 70.5343 51.3858 70.3433C51.4015 70.207 51.4161 70.1614 51.4295 70.2065C58.2974 74.9049 55.5976 86.5654 56.2572 86.6221C56.8869 86.6762 57.4446 86.2332 57.5433 85.6191L57.6176 84.9895L57.6385 84.7786V84.7786C58.0605 80.2014 57.2594 75.0309 54.1771 70.0222C53.9211 69.6061 53.6508 69.1958 53.3659 68.7916Z" fill="#E7EAEE"/>
<path fill-rule="evenodd" clip-rule="evenodd" d="M67.6664 68.7564L67.8178 69.0265L68.0024 69.3732C68.1136 69.5866 68.2385 69.8343 68.3744 70.1139C68.8455 71.0831 69.3213 72.1799 69.7768 73.3895C71.0591 76.7943 71.9557 80.4689 72.2618 84.2972C72.6771 89.4923 71.9272 94.3952 70.028 98.8555L69.8654 99.2299C68.3224 102.714 66.0744 105.907 63.1564 108.771L62.8671 109.051L63.1131 109.063C67.3152 109.239 71.4708 108.863 75.124 107.698C75.9074 107.449 76.7615 107.578 77.4365 108.047C78.11 108.516 78.5285 109.27 78.5707 110.089L78.5802 110.343L78.5862 110.679V110.679V110.809C78.5862 111.278 78.5724 111.804 78.539 112.38C78.4468 113.971 78.2263 115.688 77.8421 117.48C76.7568 122.543 74.5867 127.286 71.0399 131.281C70.5693 131.812 69.907 132.13 69.203 132.167L69.0403 132.171C68.2885 132.157 67.6021 131.846 67.1142 131.315L66.7569 130.9L66.5817 130.701V130.701L66.2093 130.288L65.8015 129.848C65.6598 129.697 65.5125 129.542 65.3596 129.383C64.0573 128.033 62.6201 126.694 61.0936 125.462C56.8625 122.048 52.7814 120.121 49.2959 120.33C43.5944 120.672 38.8729 120.406 34.4926 119.177C28.8297 117.588 24.383 114.47 21.4403 109.508L21.2754 109.225C19.7519 106.568 17.5018 103.507 14.8477 100.322C14.0274 99.3373 13.2184 98.4012 12.4472 97.5354L12.1191 97.1687C11.5938 96.5843 11.1634 96.1186 10.983 95.929C10.3169 95.2271 10.0854 94.2201 10.3764 93.2992L10.4191 93.1747C10.7388 92.3142 11.4823 91.6766 12.3884 91.4977L17.2474 90.5374L17.304 90.4555C19.0427 87.9842 21.5251 85.8909 24.8226 85.0478C28.2621 84.1683 31.8815 84.933 35.5265 87.2458L35.7808 87.4096C40.7037 90.6293 45.5833 90.4517 50.2225 88.0261C53.5363 86.2933 56.6947 83.3511 59.088 79.75C61.3132 76.402 62.6358 72.8229 62.7301 69.9979C62.7695 68.8174 63.5838 67.8037 64.729 67.5147C65.8752 67.225 67.0738 67.7325 67.6664 68.7564ZM65.6293 70.1232L65.5979 70.3653C65.171 73.464 63.9748 77.7795 61.8113 81.0347C59.1477 85.0424 55.3887 88.1073 51.6113 90.0826C46.1618 92.9318 40.2301 93.4534 34.3896 89.7519L34.132 89.586C31.0628 87.5786 28.7337 86.612 25.538 87.4096C22.3423 88.2073 20.7901 90.5348 19.4106 92.6942L19.3474 92.7856C19.1262 93.081 18.8028 93.2856 18.4382 93.3576L12.379 94.3173L14.5856 97.0585C15.2497 97.8894 15.7217 98.4884 16.0017 98.8555L18.427 102.05C25.655 111.53 33.4336 120.582 48.6023 117.448L49.1164 117.338C53.1352 116.445 56.5046 118.844 60.7315 122.38L61.6346 123.141C62.7528 124.087 66.1332 127.067 67.5168 128.501L67.969 128.976L68.3861 129.425C68.473 129.519 68.5559 129.61 68.6344 129.698L69.0657 130.184L69.3305 129.871C72.1919 126.426 73.9839 121.18 74.9116 116.852C75.2622 115.217 75.4633 113.651 75.547 112.207L75.5573 112.018C75.5791 111.596 75.5888 111.227 75.5903 110.919V110.691L75.1582 110.818C70.1552 112.236 64.5264 112.377 59.034 111.744C57.7073 111.591 72.2618 99.8026 69.2743 84.5361C68.5934 81.0566 68.1613 76.4046 66.9721 73.247C66.5971 72.2511 66.2083 71.3404 65.8231 70.5261L65.6293 70.1232Z" fill="#E7EAEE"/>
<path fill-rule="evenodd" clip-rule="evenodd" d="M27.6359 97.1052C28.7927 97.1052 29.7339 96.1641 29.7339 95.0072C29.7339 93.8504 28.7927 92.9093 27.6359 92.9093C26.4791 92.9093 25.538 93.8504 25.538 95.0072C25.538 96.1639 26.4791 97.1052 27.6359 97.1052Z" fill="#00160A"/>
<ellipse cx="29.4342" cy="102.8" rx="3.29678" ry="2.69736" fill="#FFB61D"/>
<ellipse cx="29.4342" cy="102.8" rx="3.29678" ry="2.69736" fill="#FFB61D"/>
<path fill-rule="evenodd" clip-rule="evenodd" d="M67.6664 68.7564L67.8178 69.0265L68.0024 69.3732C68.1136 69.5866 68.2385 69.8343 68.3744 70.1139C68.8455 71.0831 69.3213 72.1799 69.7768 73.3895C71.0591 76.7943 71.9557 80.4689 72.2618 84.2972C72.6771 89.4923 71.9272 94.3952 70.028 98.8555L69.8654 99.2299C68.3224 102.714 66.0744 105.907 63.1564 108.771L62.8671 109.051L63.1131 109.063C67.3152 109.239 71.4708 108.863 75.124 107.698C75.9074 107.449 76.7615 107.578 77.4365 108.047C78.11 108.516 78.5285 109.27 78.5707 110.089L78.5802 110.343L78.5862 110.679V110.809C78.5862 111.278 78.5724 111.804 78.539 112.38C78.4468 113.971 78.2263 115.688 77.8421 117.48C76.7568 122.543 74.5867 127.286 71.0399 131.281C70.5693 131.812 69.907 132.13 69.203 132.167L69.0403 132.171C68.2885 132.157 67.6021 131.846 67.1142 131.315L66.7569 130.9L66.5817 130.701L66.2093 130.288L65.8015 129.848C65.6599 129.697 65.5125 129.542 65.3596 129.383C64.0573 128.033 62.6202 126.694 61.0936 125.462C56.8625 122.048 52.7814 120.121 49.296 120.33C43.5944 120.672 38.8729 120.406 34.4926 119.177C28.8297 117.588 24.383 114.47 21.4403 109.508L21.2754 109.225C19.7519 106.568 17.5018 103.507 14.8477 100.322C14.0274 99.3373 13.2184 98.4012 12.4472 97.5354L12.1191 97.1687C11.5938 96.5843 11.1634 96.1186 10.983 95.929C10.3169 95.2271 10.0854 94.2201 10.3764 93.2992L10.4191 93.1747C10.7388 92.3142 11.4823 91.6766 12.3884 91.4977L17.2474 90.5374L17.3041 90.4555C19.0427 87.9842 21.5251 85.8909 24.8226 85.0478C28.0684 84.2178 31.4745 84.8521 34.911 86.8698C38.7176 85.594 41.9858 82.6823 44.7223 78.5915C46.0594 76.5925 47.1796 74.4437 48.0897 72.2908C48.4098 71.5335 48.6808 70.8294 48.9043 70.195C48.9826 69.9728 49.0494 69.7752 49.1054 69.6027L49.1794 69.369C49.4566 68.495 50.2183 67.8616 51.1293 67.751C52.0189 67.6421 52.8519 68.0622 53.3659 68.7916C53.6508 69.1958 53.9211 69.6061 54.1771 70.0222C56.5698 73.9102 57.5878 77.8957 57.7262 81.6255C58.2025 81.0238 58.6576 80.3976 59.088 79.75C61.3132 76.402 62.6358 72.8229 62.7301 69.9979C62.7695 68.8174 63.5838 67.8037 64.729 67.5147C65.8752 67.225 67.0738 67.7325 67.6664 68.7564ZM50.2225 88.0261C45.7161 90.3822 40.983 90.6173 36.2038 87.678C39.4216 86.1901 44.5845 83.1098 46.7152 79.9245C48.1438 77.7888 49.3327 75.5083 50.2981 73.2244C50.5894 72.5353 50.8429 71.8862 51.0601 71.2872L51.1657 70.9919C51.2507 70.7506 51.3238 70.5343 51.3858 70.3433C51.4015 70.207 51.4161 70.1614 51.4295 70.2065C55.9948 73.3296 56.3325 79.5291 56.2395 83.3517C54.4044 85.3096 52.3453 86.916 50.2225 88.0261ZM51.6113 90.0826C53.4401 89.1263 55.2646 87.9145 56.9626 86.4641C57.0927 86.3882 57.2078 86.2884 57.3013 86.17C58.9796 84.6897 60.5235 82.9724 61.8113 81.0347C63.9748 77.7795 65.171 73.464 65.5979 70.3653L65.6293 70.1232L65.8231 70.5261C66.2083 71.3404 66.5971 72.2511 66.9721 73.247C67.7997 75.4444 68.2606 78.3656 68.6939 81.1117C68.8832 82.3116 69.0672 83.4781 69.2743 84.5361C71.5641 96.2372 63.5487 105.895 60.2773 109.837C59.2805 111.038 58.7241 111.708 59.034 111.744C64.5264 112.377 70.1552 112.236 75.1582 110.818L75.5903 110.691V110.919C75.5888 111.227 75.5791 111.596 75.5573 112.018L75.547 112.207C75.4633 113.651 75.2622 115.217 74.9116 116.852C73.9839 121.18 72.1919 126.426 69.3305 129.871L69.0657 130.184L68.6344 129.698C68.5559 129.61 68.473 129.519 68.3861 129.425L67.969 128.976L67.5168 128.501C66.1332 127.067 62.7528 124.087 61.6346 123.141L60.7315 122.38C56.5046 118.844 53.1352 116.445 49.1164 117.338L48.6023 117.448C33.4336 120.582 25.655 111.53 18.427 102.05L16.0017 98.8555C15.7217 98.4884 15.2497 97.8894 14.5856 97.0585L12.379 94.3173L18.4382 93.3576C18.8028 93.2856 19.1262 93.081 19.3474 92.7856L19.4106 92.6942C20.7901 90.5348 22.3423 88.2073 25.538 87.4096C28.7337 86.612 31.0628 87.5786 34.132 89.586L34.3896 89.7519C40.2301 93.4534 46.1618 92.9318 51.6113 90.0826ZM291.443 172.839C292.621 172.266 294.735 173.376 293.509 175.164C291.653 177.87 293.715 184.155 294.971 187.982C295.552 189.753 295.961 190.998 295.729 191.119C294.995 191.503 294.09 191.219 293.706 190.485C291.63 186.513 290.439 183.359 290.141 180.962C289.993 179.769 289.961 178.615 290.044 177.502L290.055 177.373L280.459 182.038L280.337 182.149C278.171 184.182 277.218 186.541 278.803 190.72L278.897 190.962C280.618 195.344 283.531 198.487 286.562 198.356L286.799 198.344C293.534 198.209 297.56 196.182 298.997 193.714C300.804 190.611 301.294 187.03 297.924 180.062C297.563 179.317 295.715 174.165 298.33 176.825C300.945 179.484 304.591 191.238 302.233 195.288C300.264 198.669 295.213 200.364 288.29 200.693C288.33 200.869 288.339 201.056 288.311 201.245C287.655 205.696 285.624 208.495 282.228 209.305C279.63 209.924 276.839 209.104 274.282 207.127C265.298 209.056 256.603 211.996 248.194 215.948L246.948 216.538C242.658 218.587 240.198 219.961 238.401 221.296C237.347 222.08 236.477 222.882 235.541 223.914L235.39 224.086C234.936 224.613 233.946 225.822 232.82 227.198C231.32 229.029 229.58 231.156 228.541 232.358L228.04 232.935C223.819 237.771 218.5 243.258 211.189 250.152L210.984 250.34C208.243 252.789 200.959 256.931 191.875 261.107C216.944 260.216 235.02 250.648 246.277 232.386C246.772 231.582 247.878 231.431 248.571 232.073C267.928 250 290.356 258.297 315.943 257.001C341.597 255.702 360.424 249.034 372.479 237.063C373.067 236.48 374.015 236.483 374.599 237.07C375.182 237.658 375.178 238.607 374.591 239.19C361.944 251.748 335.093 261.171 308.762 262.505C283.154 263.801 267.875 253.25 248.338 235.908L247.861 235.481L247.689 235.744C235.316 254.495 208.434 268.172 181.607 268.365L180.767 268.368C153.327 268.368 137.502 255.082 118.989 236.922L118.845 236.78L118.779 236.836C118.236 237.293 117.697 237.747 117.162 238.197C99.8154 252.795 86.8722 263.687 67.4023 266.47L66.7813 266.556C44.8284 270.998 11.5345 259.167 6.4182 253.368C1.73027 248.054 7.19835 251.357 8.6994 252.264C8.83657 252.347 8.94061 252.41 9.00074 252.444C23.5305 260.763 40.2829 263.931 60.3821 261.189C63.156 260.811 65.9123 260.31 68.651 259.686L68.6193 259.391C67.7418 251.056 67.7367 247.413 69.0012 243.232C70.7212 237.544 74.8971 233.222 82.409 229.786L84.4773 228.872C93.7563 224.782 101.126 221.712 108.769 218.729L109.329 218.511C110.186 218.178 111.055 217.842 111.941 217.502L112.81 217.171C113.124 217.06 117.219 215.436 123.445 212.968C137.803 207.276 163.49 197.092 180.248 190.613C183.873 189.219 188.263 188.756 193.647 189.034L194.11 189.059C198.144 189.297 202.111 189.844 208.614 190.969L214.328 191.97C220.709 193.075 223.8 193.51 227.41 193.767C228.545 193.848 229.623 193.948 230.648 194.043L230.648 194.043L230.648 194.043C234.443 194.396 237.498 194.68 239.932 193.655C242.097 192.743 244.219 191.863 246.299 191L246.299 191L246.299 191C253.1 188.179 259.445 185.547 265.332 182.621C265.736 180.002 266.768 178.069 268.384 176.796C270.878 174.832 274.408 174.799 277.47 175.99C278.241 176.29 278.623 177.158 278.323 177.93C278.226 178.179 277.603 178.064 276.72 177.902C274.875 177.561 271.899 177.013 270.239 179.151C268.391 181.529 267.777 185.173 269.413 192.348C270.599 197.548 278.286 206.389 281.533 206.389C285.152 206.389 285.999 202.875 286.479 200.882L286.509 200.758C282.204 200.869 278.933 198.145 276.81 192.916L276.707 192.657C274.523 187.098 275.122 182.641 278.653 179.636C278.717 179.582 278.786 179.533 278.858 179.49L278.969 179.43L291.443 172.839ZM271.517 204.418C271.365 204.234 271.215 204.045 271.066 203.853C271.01 203.793 270.957 203.733 270.91 203.677C270.774 203.511 270.634 203.342 270.491 203.171C269.33 201.776 267.984 200.16 266.93 197.829L266.778 197.489C265.087 193.702 264.886 189.449 264.989 185.942L265.005 185.535L264.916 185.58C257.932 189.036 250.335 192.504 242.125 195.982L241.095 196.417C237.58 197.898 233.19 198.944 227.627 198.584L227.197 198.555C223.396 198.284 220.199 197.83 213.496 196.666L208.491 195.788C194.383 193.346 187.324 192.965 181.506 195.14C181.506 195.14 94.7508 227.775 83.6398 232.519C76.8822 235.61 74.5896 238.519 71.795 243.232C70.3496 245.669 70.4957 252.394 70.5972 257.065L70.5973 257.066L70.5975 257.075C70.6144 257.855 70.6301 258.577 70.6368 259.212C87.0408 255.109 102.809 246.58 117.952 233.607C118.549 233.096 119.439 233.133 119.992 233.691C121.217 234.93 122.463 236.127 123.729 237.281L186.202 211.181C186.373 211.109 186.551 211.072 186.726 211.065C187.196 210.843 187.704 210.66 188.248 210.515C193.696 209.067 198.046 211.423 201.052 217.223L206.498 213.251C207.301 212.665 208.441 213.009 208.786 213.941C213.755 227.371 212.308 236.573 204.125 241.013C195.873 245.491 188.697 241.799 183.102 230.607C182.818 230.04 182.929 229.383 183.322 228.941C181.988 223.523 181.741 219.206 182.648 216.08L127.913 240.884C136.098 247.529 145.085 252.541 154.882 255.921C155.106 255.707 155.348 255.522 155.587 255.392C163.839 250.872 184.168 245.592 189.19 244.288C189.625 244.175 189.944 244.092 190.132 244.042C192.488 243.41 190.074 245.612 189.363 245.94L189.272 245.979L159.6 257.405C168.427 259.919 177.878 261.175 187.96 261.175C188.533 261.175 189.102 261.171 189.669 261.163L190.332 260.731C196.678 256.607 207.29 249.709 209.133 247.972L209.992 247.159C216.101 241.231 220.648 235.544 224.617 230.58C228.971 225.133 232.63 220.557 236.894 217.487C240.209 215.1 241.41 214.554 244.233 213.273L244.234 213.272C244.989 212.93 245.86 212.534 246.919 212.037C254.408 208.517 262.912 206.48 270.895 204.567L270.896 204.567L270.896 204.566L271.517 204.418ZM189.018 213.411C193.335 212.264 196.568 214.291 199.032 219.952L199.11 220.338C200.021 225.038 199.629 227.668 198.381 228.368C197.201 229.03 196.039 228.383 194.534 225.671C194.177 225.017 193.381 224.717 192.67 224.997L192.659 225.002L186.08 227.597L185.916 226.875C184.114 218.709 185.288 214.403 189.018 213.411ZM116.492 281.482C117.188 281.034 121.991 278.69 117.713 283.095C113.435 287.501 80.1176 306.191 62.1326 307.226C44.7982 308.223 29.4075 300.984 16.017 291.509L15.5733 291.192L15.4848 291.306C14.892 292.058 14.2829 292.74 13.657 293.352L13.3877 293.61C12.2535 294.675 10.2905 295.88 7.45429 297.281C6.71226 297.648 4.09032 297.985 5.44707 296.601C6.80382 295.218 9.77333 293.226 11.5027 292.083C12.6329 291.337 12.9899 290.464 13.344 289.598C13.5317 289.139 13.7187 288.681 14.0197 288.246C14.5031 287.547 15.4708 287.389 16.1511 287.899C29.3517 297.793 44.7724 303.067 62.1326 302.068C79.5646 301.064 97.5679 293.658 116.492 281.482ZM219.02 291.036C219.629 290.475 219.629 286.471 219.02 287.032C212.287 293.245 198.191 298.71 180.796 299.711C163.38 300.713 149.687 297.975 139.691 291.547C138.995 291.099 135.549 289.915 137.62 291.997C139.691 294.078 162.968 304.937 180.969 303.902L181.508 303.87C199.244 302.787 211.748 297.746 219.02 291.036ZM206.726 217.128L206.636 216.858L202.124 220.15L202.207 220.616C203.114 225.922 202.495 229.39 199.979 230.906L199.847 230.982C197.224 232.453 194.756 231.414 192.691 228.392L192.601 228.257L186.534 230.708L186.674 230.963C191.311 239.331 196.451 241.658 202.5 238.483L202.695 238.379C208.77 235.083 210.266 228.356 206.936 217.78L206.726 217.128ZM29.7339 95.0072C29.7339 96.1641 28.7927 97.1052 27.6359 97.1052C26.4791 97.1052 25.538 96.1639 25.538 95.0072C25.538 93.8504 26.4791 92.9093 27.6359 92.9093C28.7927 92.9093 29.7339 93.8504 29.7339 95.0072Z" fill="#00160A"/>
</svg>
